<svg display="none" xmlns="http://www.w3.org/2000/svg">
    <symbol id="arrow-left" viewBox='0 0 512 512'>
        <g>
            <path d="m198.608 246.104 184.056-184.064c5.068-5.056 7.856-11.816 7.856-19.024 0-7.212-2.788-13.968-7.856-19.032l-16.128-16.12c-5.06-5.072-11.824-7.864-19.032-7.864s-13.964 2.792-19.028 7.864l-219.148 219.144c-5.084 5.08-7.868 11.868-7.848 19.084-.02 7.248 2.76 14.028 7.848 19.112l218.944 218.932c5.064 5.072 11.82 7.864 19.032 7.864 7.208 0 13.964-2.792 19.032-7.864l16.124-16.12c10.492-10.492 10.492-27.572 0-38.06z"/>
        </g>
    </symbol>

    <symbol id="arrow-right" viewBox='0 0 512 512'>
        <g>
            <path d="m382.678 226.804-218.948-218.944c-5.064-5.068-11.824-7.86-19.032-7.86s-13.968 2.792-19.032 7.86l-16.124 16.12c-10.492 10.504-10.492 27.576 0 38.064l183.856 183.856-184.06 184.06c-5.064 5.068-7.86 11.824-7.86 19.028 0 7.212 2.796 13.968 7.86 19.04l16.124 16.116c5.068 5.068 11.824 7.86 19.032 7.86s13.968-2.792 19.032-7.86l219.152-219.144c5.076-5.084 7.864-11.872 7.848-19.088.016-7.244-2.772-14.028-7.848-19.108z"/>
        </g>
    </symbol>
</svg>